<svg width="7" height="27" viewBox="0 0 7 27" fill="none" xmlns="http://www.w3.org/2000/svg">
<path d="M3.66341 20C4.54747 20 5.39531 20.3512 6.02043 20.9763C6.64555 21.6014 6.99674 22.4493 6.99674 23.3333C6.99674 24.2174 6.64555 25.0652 6.02043 25.6904C5.39531 26.3155 4.54747 26.6667 3.66341 26.6667C2.77936 26.6667 1.93151 26.3155 1.30639 25.6904C0.681268 25.0652 0.330078 24.2174 0.330078 23.3333C0.330078 22.4493 0.681268 21.6014 1.30639 20.9763C1.93151 20.3512 2.77936 20 3.66341 20ZM3.66341 10C4.54747 10 5.39531 10.3512 6.02043 10.9763C6.64555 11.6014 6.99674 12.4493 6.99674 13.3333C6.99674 14.2174 6.64555 15.0652 6.02043 15.6904C5.39531 16.3155 4.54747 16.6667 3.66341 16.6667C2.77936 16.6667 1.93151 16.3155 1.30639 15.6904C0.681268 15.0652 0.330078 14.2174 0.330078 13.3333C0.330078 12.4493 0.681268 11.6014 1.30639 10.9763C1.93151 10.3512 2.77936 10 3.66341 10ZM3.66341 0C4.54747 0 5.39531 0.351189 6.02043 0.976311C6.64555 1.60143 6.99674 2.44928 6.99674 3.33333C6.99674 4.21739 6.64555 5.06523 6.02043 5.69036C5.39531 6.31548 4.54747 6.66667 3.66341 6.66667C2.77936 6.66667 1.93151 6.31548 1.30639 5.69036C0.681268 5.06523 0.330078 4.21739 0.330078 3.33333C0.330078 2.44928 0.681268 1.60143 1.30639 0.976311C1.93151 0.351189 2.77936 0 3.66341 0Z" fill="#94A3B8"/>
</svg>
