<svg width="268" height="78" viewBox="0 0 268 78" fill="none" xmlns="http://www.w3.org/2000/svg">
<g filter="url(#filter0_d_27_703)">
<path d="M35.88 52.8049H29.44L23.88 42.2449H19.88V52.8049H14.32V30.4449C14.32 28.3115 14.8133 26.7649 15.8 25.8049C16.7867 24.8182 18.44 24.3249 20.76 24.3249H25.48C28.3067 24.3249 30.5467 25.1915 32.2 26.9249C33.88 28.6315 34.72 30.8049 34.72 33.4449C34.72 35.3649 34.2133 37.0315 33.2 38.4449C32.2133 39.8315 30.9867 40.7915 29.52 41.3249L35.88 52.8049ZM25.12 37.6049C26.2933 37.6049 27.2533 37.2049 28 36.4049C28.7733 35.5782 29.16 34.5649 29.16 33.3649C29.16 32.1382 28.7867 31.1515 28.04 30.4049C27.32 29.6582 26.3467 29.2849 25.12 29.2849H22.36C20.7067 29.2849 19.88 30.1249 19.88 31.8049V37.6049H25.12ZM62.9719 52.8049H56.0919L50.1319 42.8849L44.2519 52.8049H37.3719L46.9319 38.2049L37.9719 24.3249H44.8119L50.1319 33.5249L55.5319 24.3249H62.3319L53.3719 38.2049L62.9719 52.8049ZM88.2778 24.3249V49.9249C88.2778 50.8049 88.0111 51.5649 87.4778 52.2049C86.9445 52.8182 86.3178 53.1249 85.5978 53.1249C83.7578 53.1249 82.2511 52.0582 81.0778 49.9249L71.2378 34.5249V52.8049H65.6778V24.3249H71.0378L82.7178 42.9649V24.3249H88.2778ZM110.763 52.8049H105.203V24.3249H110.763V52.8049ZM134.71 52.8049H129.51V38.2049C129.51 36.8982 129.244 36.0049 128.71 35.5249C128.177 35.0449 127.43 34.8049 126.47 34.8049L121.79 36.7649V52.8049H116.59V29.9649H120.47L121.67 32.6849L128.07 29.7249C129.857 29.7249 131.404 30.3915 132.71 31.7249C134.044 33.0315 134.71 34.9515 134.71 37.4849V52.8049ZM158.16 40.7649C158.16 46.7115 156.627 50.5115 153.56 52.1649C152.307 52.8315 150.773 53.1649 148.96 53.1649L145.12 50.6849V59.6049H139.92V30.1249H150.16C153.253 30.1249 155.36 31.0049 156.48 32.7649C157.6 34.4982 158.16 37.1649 158.16 40.7649ZM152.96 41.5649C152.96 37.0582 151.52 34.8049 148.64 34.8049H145.12V45.4049L148.64 47.6849C150.187 47.6849 151.293 47.2049 151.96 46.2449C152.627 45.2582 152.96 43.6982 152.96 41.5649ZM179.383 52.8049H175.503L174.303 50.0849L167.903 53.0449C166.116 53.0449 164.556 52.3915 163.223 51.0849C161.916 49.7515 161.263 47.8182 161.263 45.2849V29.9649H166.463V44.1649C166.463 46.6982 167.476 47.9649 169.503 47.9649L174.183 45.4449V29.9649H179.383V52.8049ZM194.993 52.8049H191.753C189.779 52.8049 188.273 52.2182 187.233 51.0449C186.219 49.8715 185.713 48.4715 185.713 46.8449V34.8449H183.513V30.8849H185.713V26.4049H190.913V30.8849H194.593V34.8449H190.913V46.5249C190.913 47.7782 191.513 48.4049 192.713 48.4049H194.993V52.8049Z" fill="white"/>
</g>
<g filter="url(#filter1_d_27_703)">
<ellipse cx="228.5" cy="39" rx="20.5" ry="20" fill="url(#paint0_linear_27_703)"/>
</g>
<path d="M229.5 41.3835C230.849 41.3835 231.943 40.3164 231.943 39C231.943 37.6837 230.849 36.6166 229.5 36.6166C228.151 36.6166 227.057 37.6837 227.057 39C227.057 40.3164 228.151 41.3835 229.5 41.3835Z" fill="white"/>
<path fill-rule="evenodd" clip-rule="evenodd" d="M229.5 33.6096C233.132 33.6096 236.506 34.1181 239.05 34.9725C242.115 36.002 244 37.5625 244 38.9756C244 40.4481 242.003 42.1059 238.711 43.1699C236.223 43.9742 232.948 44.3941 229.5 44.3941C225.965 44.3941 222.618 44 220.101 43.161C216.918 42.0993 215 40.42 215 38.9756C215 37.574 216.799 36.0256 219.821 34.9976C222.375 34.1291 225.832 33.6096 229.5 33.6096H229.5Z" stroke="white" stroke-width="2"/>
<path fill-rule="evenodd" clip-rule="evenodd" d="M224.712 36.3081C226.527 33.2385 228.664 30.641 230.693 28.9178C233.139 26.8416 235.466 26.0285 236.72 26.7343C238.028 27.4699 238.502 29.9862 237.802 33.2995C237.274 35.8046 236.01 38.7818 234.288 41.6957C232.522 44.6831 230.5 47.3152 228.498 49.0224C225.965 51.1829 223.515 51.9647 222.233 51.2431C220.988 50.5434 220.512 48.2487 221.11 45.181C221.614 42.589 222.88 39.4076 224.712 36.308L224.712 36.3081Z" stroke="white" stroke-width="2"/>
<path fill-rule="evenodd" clip-rule="evenodd" d="M224.717 41.7035C222.897 38.6374 221.658 35.5333 221.141 32.9572C220.519 29.8534 220.959 27.4803 222.212 26.7724C223.518 26.0346 225.99 26.8904 228.583 29.1366C230.543 30.8347 232.556 33.3892 234.283 36.3003C236.054 39.2848 237.382 42.3086 237.898 44.8533C238.552 48.0735 238.023 50.534 236.741 51.2577C235.498 51.9599 233.223 51.2165 230.797 49.1797C228.747 47.4589 226.554 44.8 224.717 41.7034V41.7035Z" stroke="white" stroke-width="2"/>
<defs>
<filter id="filter0_d_27_703" x="0.319946" y="17.3249" width="204.672" height="59.28" filterUnits="userSpaceOnUse" color-interpolation-filters="sRGB">
<feFlood flood-opacity="0" result="BackgroundImageFix"/>
<feColorMatrix in="SourceAlpha" type="matrix" values="0 0 0 0 0 0 0 0 0 0 0 0 0 0 0 0 0 0 127 0" result="hardAlpha"/>
<feOffset dx="-2" dy="5"/>
<feGaussianBlur stdDeviation="6"/>
<feComposite in2="hardAlpha" operator="out"/>
<feColorMatrix type="matrix" values="0 0 0 0 0.101997 0 0 0 0 0.709404 0 0 0 0 0.979167 0 0 0 0.2 0"/>
<feBlend mode="normal" in2="BackgroundImageFix" result="effect1_dropShadow_27_703"/>
<feBlend mode="normal" in="SourceGraphic" in2="effect1_dropShadow_27_703" result="shape"/>
</filter>
<filter id="filter1_d_27_703" x="189" y="0" width="79" height="78" filterUnits="userSpaceOnUse" color-interpolation-filters="sRGB">
<feFlood flood-opacity="0" result="BackgroundImageFix"/>
<feColorMatrix in="SourceAlpha" type="matrix" values="0 0 0 0 0 0 0 0 0 0 0 0 0 0 0 0 0 0 127 0" result="hardAlpha"/>
<feMorphology radius="7" operator="erode" in="SourceAlpha" result="effect1_dropShadow_27_703"/>
<feOffset/>
<feGaussianBlur stdDeviation="13"/>
<feComposite in2="hardAlpha" operator="out"/>
<feColorMatrix type="matrix" values="0 0 0 0 0.152941 0 0 0 0 0.662745 0 0 0 0 0.956863 0 0 0 0.8 0"/>
<feBlend mode="normal" in2="BackgroundImageFix" result="effect1_dropShadow_27_703"/>
<feBlend mode="normal" in="SourceGraphic" in2="effect1_dropShadow_27_703" result="shape"/>
</filter>
<linearGradient id="paint0_linear_27_703" x1="228.5" y1="19" x2="228.5" y2="59" gradientUnits="userSpaceOnUse">
<stop stop-color="#1CB0FA"/>
<stop offset="1" stop-color="#0169CA"/>
</linearGradient>
</defs>
</svg>
