<svg width="247" height="54" viewBox="0 0 247 54" fill="none" xmlns="http://www.w3.org/2000/svg">
<g filter="url(#filter0_d_194_20)">
<path d="M26.88 40.8049H20.44L14.88 30.2449H10.88V40.8049H5.32V18.4449C5.32 16.3115 5.81333 14.7649 6.8 13.8049C7.78667 12.8182 9.44 12.3249 11.76 12.3249H16.48C19.3067 12.3249 21.5467 13.1915 23.2 14.9249C24.88 16.6315 25.72 18.8049 25.72 21.4449C25.72 23.3649 25.2133 25.0315 24.2 26.4449C23.2133 27.8315 21.9867 28.7915 20.52 29.3249L26.88 40.8049ZM16.12 25.6049C17.2933 25.6049 18.2533 25.2049 19 24.4049C19.7733 23.5782 20.16 22.5649 20.16 21.3649C20.16 20.1382 19.7867 19.1515 19.04 18.4049C18.32 17.6582 17.3467 17.2849 16.12 17.2849H13.36C11.7067 17.2849 10.88 18.1249 10.88 19.8049V25.6049H16.12ZM53.9719 40.8049H47.0919L41.1319 30.8849L35.2519 40.8049H28.3719L37.9319 26.2049L28.9719 12.3249H35.8119L41.1319 21.5249L46.5319 12.3249H53.3319L44.3719 26.2049L53.9719 40.8049ZM79.2778 12.3249V37.9249C79.2778 38.8049 79.0111 39.5649 78.4778 40.2049C77.9445 40.8182 77.3178 41.1249 76.5978 41.1249C74.7578 41.1249 73.2511 40.0582 72.0778 37.9249L62.2378 22.5249V40.8049H56.6778V12.3249H62.0378L73.7178 30.9649V12.3249H79.2778ZM101.763 40.8049H96.2028V12.3249H101.763V40.8049ZM125.71 40.8049H120.51V26.2049C120.51 24.8982 120.244 24.0049 119.71 23.5249C119.177 23.0449 118.43 22.8049 117.47 22.8049L112.79 24.7649V40.8049H107.59V17.9649H111.47L112.67 20.6849L119.07 17.7249C120.857 17.7249 122.404 18.3915 123.71 19.7249C125.044 21.0315 125.71 22.9515 125.71 25.4849V40.8049ZM149.16 28.7649C149.16 34.7115 147.627 38.5115 144.56 40.1649C143.307 40.8315 141.773 41.1649 139.96 41.1649L136.12 38.6849V47.6049H130.92V18.1249H141.16C144.253 18.1249 146.36 19.0049 147.48 20.7649C148.6 22.4982 149.16 25.1649 149.16 28.7649ZM143.96 29.5649C143.96 25.0582 142.52 22.8049 139.64 22.8049H136.12V33.4049L139.64 35.6849C141.187 35.6849 142.293 35.2049 142.96 34.2449C143.627 33.2582 143.96 31.6982 143.96 29.5649ZM170.383 40.8049H166.503L165.303 38.0849L158.903 41.0449C157.116 41.0449 155.556 40.3915 154.223 39.0849C152.916 37.7515 152.263 35.8182 152.263 33.2849V17.9649H157.463V32.1649C157.463 34.6982 158.476 35.9649 160.503 35.9649L165.183 33.4449V17.9649H170.383V40.8049ZM185.993 40.8049H182.753C180.779 40.8049 179.273 40.2182 178.233 39.0449C177.219 37.8715 176.713 36.4715 176.713 34.8449V22.8449H174.513V18.8849H176.713V14.4049H181.913V18.8849H185.593V22.8449H181.913V34.5249C181.913 35.7782 182.513 36.4049 183.713 36.4049H185.993V40.8049Z" fill="white"/>
</g>
<g filter="url(#filter1_d_194_20)">
<ellipse cx="219.5" cy="27" rx="20.5" ry="20" fill="url(#paint0_linear_194_20)"/>
</g>
<path d="M220.5 29.3835C221.849 29.3835 222.943 28.3163 222.943 27C222.943 25.6837 221.849 24.6166 220.5 24.6166C219.151 24.6166 218.057 25.6837 218.057 27C218.057 28.3163 219.151 29.3835 220.5 29.3835Z" fill="white"/>
<path fill-rule="evenodd" clip-rule="evenodd" d="M220.5 21.6096C224.132 21.6096 227.506 22.1181 230.05 22.9725C233.115 24.002 235 25.5625 235 26.9756C235 28.4481 233.003 30.1059 229.711 31.1699C227.222 31.9742 223.948 32.3941 220.5 32.3941C216.965 32.3941 213.618 32 211.101 31.161C207.917 30.0993 206 28.42 206 26.9756C206 25.574 207.799 24.0256 210.821 22.9976C213.375 22.1291 216.832 21.6096 220.5 21.6096H220.5Z" stroke="white" stroke-width="2"/>
<path fill-rule="evenodd" clip-rule="evenodd" d="M215.712 24.3081C217.527 21.2385 219.663 18.641 221.693 16.9178C224.139 14.8416 226.466 14.0285 227.72 14.7343C229.028 15.4699 229.502 17.9862 228.802 21.2995C228.274 23.8046 227.01 26.7818 225.288 29.6957C223.522 32.6831 221.5 35.3152 219.498 37.0224C216.965 39.1829 214.515 39.9647 213.233 39.2431C211.988 38.5434 211.512 36.2487 212.109 33.181C212.614 30.589 213.88 27.4076 215.711 24.308L215.712 24.3081Z" stroke="white" stroke-width="2"/>
<path fill-rule="evenodd" clip-rule="evenodd" d="M215.717 29.7035C213.897 26.6374 212.658 23.5333 212.141 20.9572C211.518 17.8534 211.959 15.4803 213.212 14.7724C214.518 14.0346 216.99 14.8905 219.582 17.1366C221.543 18.8347 223.556 21.3892 225.283 24.3003C227.054 27.2849 228.382 30.3086 228.898 32.8533C229.551 36.0736 229.023 38.5341 227.741 39.2577C226.498 39.9599 224.223 39.2165 221.797 37.1797C219.747 35.4589 217.554 32.8 215.717 29.7034V29.7035Z" stroke="white" stroke-width="2"/>
<defs>
<filter id="filter0_d_194_20" x="0.320068" y="7.32487" width="190.672" height="45.28" filterUnits="userSpaceOnUse" color-interpolation-filters="sRGB">
<feFlood flood-opacity="0" result="BackgroundImageFix"/>
<feColorMatrix in="SourceAlpha" type="matrix" values="0 0 0 0 0 0 0 0 0 0 0 0 0 0 0 0 0 0 127 0" result="hardAlpha"/>
<feOffset/>
<feGaussianBlur stdDeviation="2.5"/>
<feComposite in2="hardAlpha" operator="out"/>
<feColorMatrix type="matrix" values="0 0 0 0 0.0666667 0 0 0 0 0.576471 0 0 0 0 0.901961 0 0 0 0.54 0"/>
<feBlend mode="normal" in2="BackgroundImageFix" result="effect1_dropShadow_194_20"/>
<feBlend mode="normal" in="SourceGraphic" in2="effect1_dropShadow_194_20" result="shape"/>
</filter>
<filter id="filter1_d_194_20" x="192" y="0" width="55" height="54" filterUnits="userSpaceOnUse" color-interpolation-filters="sRGB">
<feFlood flood-opacity="0" result="BackgroundImageFix"/>
<feColorMatrix in="SourceAlpha" type="matrix" values="0 0 0 0 0 0 0 0 0 0 0 0 0 0 0 0 0 0 127 0" result="hardAlpha"/>
<feMorphology radius="3" operator="erode" in="SourceAlpha" result="effect1_dropShadow_194_20"/>
<feOffset/>
<feGaussianBlur stdDeviation="5"/>
<feComposite in2="hardAlpha" operator="out"/>
<feColorMatrix type="matrix" values="0 0 0 0 0.152941 0 0 0 0 0.662745 0 0 0 0 0.956863 0 0 0 0.8 0"/>
<feBlend mode="normal" in2="BackgroundImageFix" result="effect1_dropShadow_194_20"/>
<feBlend mode="normal" in="SourceGraphic" in2="effect1_dropShadow_194_20" result="shape"/>
</filter>
<linearGradient id="paint0_linear_194_20" x1="219.5" y1="7" x2="219.5" y2="47" gradientUnits="userSpaceOnUse">
<stop stop-color="#1CB0FA"/>
<stop offset="1" stop-color="#0169CA"/>
</linearGradient>
</defs>
</svg>
